<svg width="16" height="14" xmlns="http://www.w3.org/2000/svg">
    <path d="M14.18 3.238c.496 0 .898.367.896.82v2.235H9.744a1.57 1.57 0 0 0-1.092.42c-.268.251-.434.593-.434.97v1.821c0 .768.685 1.392 1.528 1.392h5.33v2.285c0 .452-.402.819-.898.819H.898C.402 14 0 13.633 0 13.181V4.057a.778.778 0 0 1 .198-.51.931.931 0 0 1 .702-.309zm.922 3.623c.102 0 .199.016.29.044a.92.92 0 0 1 .315.17c.18.15.293.366.293.605v1.823c0 .239-.113.455-.293.604a.892.892 0 0 1-.314.17.997.997 0 0 1-.291.045H9.746c-.496 0-.899-.367-.899-.82V7.68c0-.452.403-.819.899-.819zm-3.93 1.212h-.298c-.104 0-.2.034-.277.088a.39.39 0 0 0-.172.321v.272c0 .226.2.41.449.41h.298c.248 0 .45-.184.45-.41v-.272c0-.226-.202-.41-.45-.41zM8.576.085c.444-.201.983-.034 1.204.37l.337.623L3.74 2.665h-.873zm3.521 1.039c.396 0 .759.239.867.604l.28.937H5.786l4.576-1.138 1.498-.374a.98.98 0 0 1 .237-.03z" fill="#E94441" fill-rule="evenodd"/>
</svg>
