<svg xmlns="http://www.w3.org/2000/svg" width="10" height="10" viewBox="0 0 10 10">
    <g fill="none" fill-rule="evenodd">
        <g fill="#E94441">
            <path d="M105.5 92.5l-3 3 1 1L107 93v-.5h-1.5zm-3.5 4.75c-.138 0-.25-.112-.25-.25s.112-.25.25-.25.25.112.25.25-.112.25-.25.25zM99 101c-.552 0-1-.448-1-1 0-.555.45-1 1-1 .552 0 1 .448 1 1 0 .555-.45 1-1 1zm0-6c-.552 0-1-.448-1-1 0-.555.45-1 1-1 .552 0 1 .448 1 1 0 .555-.45 1-1 1zm1.82-.18c.115-.25.18-.525.18-.82 0-1.105-.895-2-2-2s-2 .895-2 2 .895 2 2 2c.295 0 .57-.065.82-.18L101 97l-1.18 1.18c-.25-.115-.525-.18-.82-.18-1.105 0-2 .895-2 2s.895 2 2 2 2-.895 2-2c0-.295-.065-.57-.18-.82L102 98l3.5 3.5h1.5v-.5l-6.18-6.18z" transform="translate(-97.000000, -92.000000) translate(102.000000, 97.000000) scale(-1, 1) translate(-102.000000, -97.000000)"/>
        </g>
    </g>
</svg>
