<svg width="158" height="144" xmlns="http://www.w3.org/2000/svg">
    <g fill="none" fill-rule="evenodd">
        <path fill="#F0F0F5" fill-rule="nonzero" d="M0 0h158v144H0z"/>
        <path stroke="#000" stroke-width="1.144" fill="#78909C" fill-rule="nonzero" d="m98.831 90.038-2.095 1.953-6.218-6.667-2.207-2.368 2.095-1.953 2.207 2.368z"/>
        <path d="M92.613 83.37a36.22 36.22 0 0 1-2.095 1.953l-2.207-2.369 2.1-1.953 2.202 2.37zm6.555 6.98a36.22 36.22 0 0 1-2.095 1.953l-2.208-2.368 2.1-1.954 2.203 2.37z" fill="#465E66" fill-rule="nonzero"/>
        <path d="M101.306 58.943A34.591 34.591 0 0 1 41.46 81.327C28.434 67.36 29.196 45.48 43.161 32.451c13.94-13.005 35.868-12.243 48.874 1.702a34.35 34.35 0 0 1 9.271 24.79z" stroke="#000" stroke-width="2.288" fill="#1D70E1" fill-rule="nonzero"/>
        <path d="M124.664 118.98a6.365 6.365 0 0 1-4.361 1.719h-.228a6.354 6.354 0 0 1-4.45-2.02L92.102 94.357l9.358-8.734 23.52 24.307a6.413 6.413 0 0 1-.315 9.049z" stroke="#000" stroke-width="2.288" fill="#5E35B1" fill-rule="nonzero"/>
        <path d="M123.52 116.672a5.668 5.668 0 0 1-4.627 2.424h-.202a5.617 5.617 0 0 1-3.963-1.839L93.776 95.211l1.35-1.283 20.908 21.996a5.616 5.616 0 0 0 3.963 1.834h.203a5.592 5.592 0 0 0 3.32-1.086z" fill="#4A2A96" fill-rule="nonzero"/>
        <path stroke="#FFF" stroke-width=".686" stroke-linecap="round" stroke-linejoin="round" d="m101.327 88.504 22.152 22.151"/>
        <path d="M88.884 37.11c-11.425-12.116-30.49-12.727-42.667-1.369C34.04 47.1 33.325 66.161 44.617 78.4a30.067 30.067 0 0 0 21.08 9.602 30.268 30.268 0 0 0 23.186-50.893zm5.964 21.621C94.322 73.86 81.912 85.856 66.774 85.87a28.123 28.123 0 0 1-19.2-48.674 28.113 28.113 0 0 1 47.274 21.536z" fill="#546E7A" fill-rule="nonzero"/>
        <path d="M88.884 37.11c-11.425-12.116-30.49-12.727-42.667-1.369C34.04 47.1 33.325 66.161 44.617 78.4a30.067 30.067 0 0 0 21.08 9.602 30.268 30.268 0 0 0 23.186-50.893zm5.964 21.621C94.322 73.86 81.912 85.856 66.774 85.87a28.123 28.123 0 0 1-19.2-48.674 28.113 28.113 0 0 1 47.274 21.536z" fill="#0057CC" fill-rule="nonzero"/>
        <g fill-rule="nonzero">
            <path d="M94.942 57.913c0 26.163-34.394 37.226-49.289 14.95a26.905 26.905 0 0 1 1.013-31.342 26.922 26.922 0 0 1 30.015-9.104 26.911 26.911 0 0 1 18.261 25.496z" fill="#FFF"/>
            <path d="M88.996 40.221c-8.295-10.136-22.478-13.226-34.239-7.459C42.997 38.53 36.756 51.635 39.691 64.4c2.936 12.766 14.274 21.83 27.373 21.88a28.2 28.2 0 0 0 21.932-46.059zM45.13 58.081a21.934 21.934 0 0 1 35.03-17.547L49.518 71.178A21.464 21.464 0 0 1 45.13 58.08zm21.934 21.933a21.464 21.464 0 0 1-13.098-4.387L84.61 44.984a21.933 21.933 0 0 1-17.546 35.03z" fill="#DB5669"/>
        </g>
    </g>
</svg>
