<svg width="158" height="144" xmlns="http://www.w3.org/2000/svg">
    <g fill-rule="nonzero" fill="none">
        <path fill="#F0F0F5" d="M0 0h157.254v143.32H0z"/>
        <path d="M100.813 120.064H57.231c-3.219 0-6.76-3.67-6.76-6.76V29.102c0-3.218 3.67-6.76 6.76-6.76H65.6v.773c0 2.446 2.06 4.378 4.377 4.378h16.738c2.446 0 4.377-2.06 4.377-4.378v-.901h8.498c3.218 0 6.76 2.575 6.76 5.665l.128 86.52c0 3.219-2.575 5.665-5.665 5.665z" fill="#FFF0F2"/>
        <path d="M99.59 17H57.102C50.536 17 45 22.536 45 29.102v84.33c0 6.567 5.536 12.103 12.102 12.103h42.616c6.566 0 12.103-5.536 12.103-12.102v-84.33C111.69 22.406 106.413 17 99.59 17zm1.223 103.064H57.231c-3.219 0-6.76-3.67-6.76-6.76V29.102c0-3.218 3.67-6.76 6.76-6.76H65.6v.773c0 2.446 2.06 4.378 4.377 4.378h16.738c2.446 0 4.377-2.06 4.377-4.378v-.901h8.498c3.218 0 6.76 2.575 6.76 5.665l.128 86.52c0 3.219-2.575 5.665-5.665 5.665z" stroke="#282828" stroke-width="2.2" fill="#868686"/>
        <path d="M98.672 73.349c0 19.77-25.985 28.131-37.237 11.297A20.336 20.336 0 1 1 98.672 73.35z" fill="#FFF0F2"/>
        <path d="M94.153 60.469a20.336 20.336 0 1 0-31.475 25.76 20.336 20.336 0 0 0 31.475-25.76zM62.52 73.349a15.817 15.817 0 0 1 25.262-12.654L65.683 82.794a15.48 15.48 0 0 1-3.164-9.445zm15.817 15.817a15.48 15.48 0 0 1-9.445-3.164L90.99 63.904a15.817 15.817 0 0 1-12.654 25.262z" stroke="#000" stroke-width="2" fill="#DB5669"/>
    </g>
</svg>
