<svg width="140" height="127" xmlns="http://www.w3.org/2000/svg">
    <g fill-rule="nonzero" fill="none">
        <path fill="#F0F0F5" d="M0 0h139.04v126.72H0z"/>
        <path d="M87.102 102.202h-35.03c-2.588 0-5.434-2.95-5.434-5.433V29.088c0-2.587 2.95-5.434 5.433-5.434h6.727v.621c0 1.967 1.656 3.519 3.519 3.519H75.77c1.966 0 3.519-1.656 3.519-3.519v-.724h6.83c2.587 0 5.433 2.07 5.433 4.553l.104 69.545c0 2.587-2.07 4.553-4.554 4.553z" fill="#F4EDFF"/>
        <path d="M59.304 64.521a.562.562 0 0 0-.55-.573h-2.42a.562.562 0 0 0-.55.573c0 .32.25.574.55.574h2.42c.301 0 .55-.254.55-.574zm0-7.895a.562.562 0 0 0-.55-.574h-2.42a.562.562 0 0 0-.55.574c0 .32.25.573.55.573h2.42c.301 0 .55-.253.55-.573zm0 15.791a.562.562 0 0 0-.55-.574h-2.42a.562.562 0 0 0-.55.574c0 .32.25.574.55.574h2.42c.301 0 .55-.254.55-.574zm-2.068-18.672h1.518c1.568 0 2.838 1.295 2.838 2.88 0 1.587-1.27 2.881-2.838 2.881h-1.518v2.135h1.518c1.568 0 2.838 1.294 2.838 2.88 0 1.586-1.27 2.88-2.838 2.88h-1.518v2.135h1.518c1.569 0 2.838 1.295 2.838 2.881 0 1.586-1.27 2.88-2.838 2.88h-1.518v1.315c0 1.818 1.441 3.287 3.212 3.287h16.94c1.771 0 3.212-1.469 3.212-3.287v-24.18c0-1.82-1.44-3.289-3.212-3.289h-16.94c-1.77 0-3.212 1.47-3.212 3.288v1.314zm8.015 6.44c0-2.463 1.964-4.466 4.393-4.466 2.43 0 4.394 2.003 4.394 4.467 0 2.464-1.965 4.466-4.394 4.466-2.43 0-4.393-2.002-4.393-4.466zm10.861 9.306v2.352H63.176v-2.352c0-2.697 2.15-4.89 4.81-4.89h3.318c2.658 0 4.808 2.193 4.808 4.89z" fill="#6733BB" stroke="#381177" stroke-width="1.32"/>
        <path d="M86.119 19.36H51.968c-5.278 0-9.728 4.45-9.728 9.728v67.785c0 5.277 4.45 9.727 9.728 9.727h34.254c5.278 0 9.728-4.45 9.728-9.727V29.088c-.103-5.382-4.346-9.728-9.831-9.728zm.983 82.842h-35.03c-2.588 0-5.434-2.95-5.434-5.433V29.088c0-2.587 2.95-5.434 5.433-5.434h6.727v.621c0 1.967 1.656 3.519 3.519 3.519H75.77c1.966 0 3.519-1.656 3.519-3.519v-.724h6.83c2.587 0 5.433 2.07 5.433 4.553l.104 69.545c0 2.587-2.07 4.553-4.554 4.553z" stroke="#282828" stroke-width="1.76" fill="#868686"/>
    </g>
</svg>
