<svg xmlns="http://www.w3.org/2000/svg" width="31" height="30" viewBox="0 0 31 30">
    <g fill="none" fill-rule="evenodd">
        <g>
            <g transform="translate(-20 -23) translate(20 23)">
                <rect width="31" height="30" fill="#FFF" rx="8"/>
                <g fill="#E94441" fill-rule="nonzero" transform="translate(6 5.5)">
                    <circle cx="6.799" cy="7.862" r="1"/>
                    <circle cx="11.829" cy="11.076" r="1"/>
                    <path d="M18.357 10.517l-.287-.392c-.31-.427-.319-1.005-.012-1.44l.28-.396c.426-.606.228-1.448-.427-1.801l-.427-.229c-.466-.248-.722-.768-.633-1.292l.081-.478c.125-.73-.423-1.405-1.164-1.436l-.485-.02c-.528-.023-.986-.38-1.133-.888l-.136-.466c-.206-.714-.99-1.083-1.673-.788l-.446.19c-.486.21-1.052.086-1.405-.31L10.167.41C9.675-.141 8.81-.137 8.32.426L8.002.79c-.35.4-.912.532-1.401.33L6.15.934c-.688-.283-1.464.1-1.662.815l-.128.47c-.14.512-.59.877-1.118.904l-.485.027c-.741.043-1.277.726-1.141 1.456l.09.477c.096.52-.152 1.044-.614 1.3L.67 6.62c-.648.36-.834 1.207-.396 1.805l.287.392c.31.427.319 1.005.012 1.44l-.28.396c-.426.605-.228 1.447.427 1.8l.427.23c.466.248.722.768.633 1.292l-.081.477c-.125.73.423 1.405 1.164 1.436l.485.02c.528.023.986.38 1.133.889l.136.465c.206.715.99 1.083 1.673.788l.446-.19c.486-.21 1.052-.085 1.405.31l.323.362c.496.55 1.362.547 1.847-.016l.318-.365c.35-.4.912-.532 1.401-.33l.45.187c.688.283 1.464-.101 1.662-.815l.128-.47c.14-.512.59-.877 1.118-.904l.485-.028c.741-.042 1.277-.725 1.141-1.455l-.09-.477c-.096-.52.152-1.045.614-1.3l.423-.237c.648-.358.834-1.204.396-1.805zM4.885 7.862c0-1.056.854-1.91 1.91-1.91 1.055 0 1.91.854 1.91 1.91s-.855 1.91-1.91 1.91c-1.056 0-1.91-.858-1.91-1.91zm2.278 4.925c-.163.198-.458.225-.656.062s-.225-.458-.062-.656l5.011-6.035c.163-.198.458-.225.656-.062s.225.458.062.656l-5.01 6.035zm4.666.198c-1.056 0-1.91-.854-1.91-1.91 0-1.055.854-1.909 1.91-1.909 1.055 0 1.91.854 1.91 1.91 0 1.055-.855 1.91-1.91 1.91z"/>
                </g>
            </g>
        </g>
    </g>
</svg>
