<svg xmlns="http://www.w3.org/2000/svg" width="99" height="93" viewBox="0 0 99 93">
    <g fill="none" fill-rule="evenodd">
        <g>
            <g transform="translate(-158 -567) translate(158 567)">
                <path fill="#E5E5EB" fill-rule="nonzero" d="M64.81 84.807c26.465-18.42 1.217-38.028 19.542-44.205 18.327-6.178.503-39.186-31.655-39.186-32.159 0-55.65 21.07-52.396 52.985 3.252 31.916 38.045 48.826 64.51 30.406z"/>
                <g fill="#E94441" fill-rule="nonzero">
                    <path d="M4.074 13.5c0 .574-.456 1.038-1.018 1.038H1.019C.456 14.538 0 14.074 0 13.5c0-.574.456-1.038 1.019-1.038h2.037c.562 0 1.018.464 1.018 1.038zm0-6.646c0-.574-.456-1.039-1.018-1.039H1.019C.456 5.815 0 6.28 0 6.854c0 .574.456 1.038 1.019 1.038h2.037c.562 0 1.018-.464 1.018-1.038zm0 13.292c0-.574-.456-1.038-1.018-1.038H1.019c-.563 0-1.019.464-1.019 1.038 0 .574.456 1.039 1.019 1.039h2.037c.562 0 1.018-.465 1.018-1.039zM22 3.323v20.354C22 25.512 20.54 27 18.74 27H4.483c-1.8 0-3.26-1.488-3.26-3.323v-1.662h1.834c1.01 0 1.833-.838 1.833-1.869 0-1.03-.823-1.87-1.833-1.87H1.222V15.37h1.834c1.01 0 1.833-.839 1.833-1.87 0-1.03-.823-1.868-1.833-1.868H1.222V8.723h1.834c1.01 0 1.833-.839 1.833-1.87 0-1.03-.823-1.869-1.833-1.869H1.222v-1.66C1.222 1.487 2.682 0 4.482 0H18.74C20.54 0 22 1.488 22 3.323zM9.08 9.85c0 1.77 1.407 3.205 3.142 3.205 1.736 0 3.143-1.435 3.143-3.205s-1.407-3.204-3.143-3.204c-1.735 0-3.143 1.435-3.143 3.204zm8.031 7.833c0-1.966-1.563-3.56-3.492-3.56h-2.793c-1.929 0-3.493 1.594-3.493 3.56v1.425h9.778v-1.425z" transform="translate(35 30)"/>
                </g>
                <path fill="#E94441" fill-rule="nonzero" stroke="#E5E5EB" stroke-width="2.178" d="M61.09 5.485H32.343c-4.442 0-8.188 3.746-8.188 8.189v57.058c0 4.442 3.746 8.188 8.188 8.188h28.834c4.443 0 8.188-3.746 8.188-8.188V13.674c-.087-4.53-3.658-8.189-8.275-8.189zm3.92 65.16c0 2.177-1.742 3.832-3.833 3.832H32.43c-2.177 0-3.833-1.742-3.833-3.833v-56.97c0-2.178 1.743-3.833 3.833-3.833h5.663v.523c0 1.655 1.393 2.961 2.961 2.961H52.38c1.655 0 2.962-1.393 2.962-2.961v-.61h5.749c2.178 0 3.833 1.742 3.833 3.833l.087 57.057h0z"/>
                <path stroke="#6D6D6D" stroke-linejoin="round" stroke-width=".581" d="M46.968 0.69L49.872 0.69 49.872 3.594 46.968 3.594z" opacity=".6" transform="rotate(9 48.42 2.142)"/>
                <circle cx="27.731" cy="2.505" r="1.815" stroke="#8F1538" stroke-linejoin="round" stroke-width=".726" opacity=".6"/>
                <path stroke="#8F1538" stroke-linejoin="round" stroke-width=".726" d="M86.894 53.683L90.523 53.683 90.523 57.313 86.894 57.313z" opacity=".6" transform="rotate(45 88.708 55.498)"/>
                <path stroke="#70BF47" stroke-linejoin="round" stroke-width=".581" d="M5.59 43.52L8.494 43.52 8.494 46.423 5.59 46.423z" opacity=".6"/>
                <circle cx="21.561" cy="73.283" r="1.452" stroke="#5B45C8" stroke-linejoin="round" stroke-width=".581" opacity=".6"/>
                <circle cx="84.353" cy="17.023" r="1.815" stroke="#70BF47" stroke-linejoin="round" stroke-width=".726" opacity=".6"/>
                <path stroke="#904800" stroke-linejoin="round" stroke-width=".726" d="M4.501 64.572L6.316 68.202 2.686 68.202z" opacity=".6" transform="rotate(45 4.501 66.387)"/>
                <path stroke="#6D6D6D" stroke-linejoin="round" stroke-width=".726" d="M95.968 25.372L97.783 29.001 94.153 29.001z" opacity=".6"/>
            </g>
        </g>
    </g>
</svg>
