<svg width="158" height="144" xmlns="http://www.w3.org/2000/svg">
    <g fill-rule="nonzero" fill="none">
        <path fill="#F0F0F5" d="M0 0h158v144H0z"/>
        <path d="M131.952 88.465a19.566 19.566 0 0 1 .5 19.836 19.57 19.57 0 0 1-17.1 10.066H44.693a19.569 19.569 0 0 1-17.1-10.066 19.565 19.565 0 0 1 .5-19.836L63.42 31.753c3.598-5.771 9.804-9.218 16.603-9.218 6.799 0 13.005 3.447 16.602 9.218l35.327 56.712z" fill="#EA431E"/>
        <path d="M126.879 41.575a9.11 9.11 0 1 0 0-18.222 9.11 9.11 0 0 0 0 18.222zM29.913 63.701a7.159 7.159 0 1 0 0-14.317 7.159 7.159 0 0 0 0 14.317z" fill="#FFD54F"/>
        <path d="M122.011 94.66c3.254 5.224-.502 11.993-6.659 11.993H44.693c-6.156 0-9.913-6.769-6.659-11.993l35.33-56.714c3.072-4.928 10.246-4.928 13.317 0l35.33 56.714z" fill="#F0F0F5"/>
        <path d="M83.703 89.956a5.19 5.19 0 0 1 1.526 3.681 5.19 5.19 0 0 1-1.526 3.68 5.205 5.205 0 1 1-7.361-7.362 5.189 5.189 0 0 1 3.681-1.524c1.437 0 2.738.583 3.68 1.525zM85.229 54.59v22.127a5.204 5.204 0 0 1-5.206 5.206 5.205 5.205 0 0 1-5.206-5.206V54.59a5.205 5.205 0 0 1 8.886-3.68 5.19 5.19 0 0 1 1.526 3.68z" fill="#FFD54F"/>
        <path d="M124.927 58.495a1.952 1.952 0 1 0 0-3.904 1.952 1.952 0 0 0 0 3.904zM106.705 25.956a1.952 1.952 0 1 0 0-3.904 1.952 1.952 0 0 0 0 3.904zM98.896 130.08a1.952 1.952 0 1 0 0-3.904 1.952 1.952 0 0 0 0 3.905zM58.547 18.146a1.952 1.952 0 1 0 0-3.904 1.952 1.952 0 0 0 0 3.904zM22.103 122.272a1.952 1.952 0 1 0 0-3.905 1.952 1.952 0 0 0 0 3.905zM115.352 119.668H44.693a20.872 20.872 0 0 1-18.238-10.736 20.869 20.869 0 0 1 .533-21.156l35.327-56.711c3.838-6.156 10.457-9.831 17.708-9.831 7.25 0 13.87 3.675 17.707 9.83l35.328 56.712a20.868 20.868 0 0 1 .532 21.156 20.871 20.871 0 0 1-18.238 10.736zM80.023 23.837c-6.346 0-12.14 3.217-15.498 8.604L29.198 89.153a18.263 18.263 0 0 0-.467 18.515 18.266 18.266 0 0 0 15.962 9.397h70.66c6.627 0 12.744-3.6 15.961-9.397a18.261 18.261 0 0 0-.466-18.515L95.52 32.44c-3.358-5.387-9.152-8.604-15.497-8.604z" fill="#000"/>
        <path d="M115.352 107.954H44.693c-3.37 0-6.36-1.759-7.996-4.706-1.636-2.947-1.55-6.415.233-9.276l35.33-56.714a9.094 9.094 0 0 1 7.763-4.31c3.18 0 6.081 1.611 7.763 4.31l35.33 56.714c1.782 2.861 1.868 6.329.232 9.276-1.636 2.947-4.625 4.706-7.996 4.706zM80.023 35.551a6.507 6.507 0 0 0-5.555 3.083L39.14 95.348a6.464 6.464 0 0 0-.166 6.636 6.462 6.462 0 0 0 5.72 3.367h70.66a6.463 6.463 0 0 0 5.72-3.367 6.464 6.464 0 0 0-.167-6.636l-35.33-56.714a6.507 6.507 0 0 0-5.553-3.083z" fill="#000"/>
        <path d="M80.023 83.224a6.515 6.515 0 0 1-6.508-6.507V54.59a6.516 6.516 0 0 1 6.508-6.508c1.737 0 3.371.677 4.601 1.907a6.465 6.465 0 0 1 1.907 4.601v22.127a6.515 6.515 0 0 1-6.508 6.507zm0-32.539a3.91 3.91 0 0 0-3.905 3.905v22.127a3.91 3.91 0 0 0 3.905 3.905 3.91 3.91 0 0 0 3.904-3.905V54.59a3.878 3.878 0 0 0-1.144-2.76 3.88 3.88 0 0 0-2.76-1.145zM80.023 100.145a6.515 6.515 0 0 1-6.508-6.508c0-1.737.677-3.371 1.907-4.6a6.465 6.465 0 0 1 4.601-1.908c1.737 0 3.371.677 4.601 1.907a6.465 6.465 0 0 1 1.907 4.601 6.465 6.465 0 0 1-1.907 4.601 6.465 6.465 0 0 1-4.601 1.907zm0-10.413a3.879 3.879 0 0 0-2.76 1.145 3.88 3.88 0 0 0-1.145 2.76 3.91 3.91 0 0 0 3.905 3.905 3.878 3.878 0 0 0 2.76-1.145 3.879 3.879 0 0 0 1.144-2.76 3.878 3.878 0 0 0-1.144-2.76 3.878 3.878 0 0 0-2.76-1.145zM126.879 42.876c-5.741 0-10.412-4.671-10.412-10.412 0-5.742 4.67-10.413 10.412-10.413 5.741 0 10.412 4.671 10.412 10.413 0 5.741-4.67 10.412-10.412 10.412zm0-18.222c-4.306 0-7.81 3.504-7.81 7.81 0 4.306 3.504 7.809 7.81 7.809 4.306 0 7.81-3.503 7.81-7.81 0-4.305-3.504-7.809-7.81-7.809zM29.913 65.003c-4.665 0-8.46-3.796-8.46-8.46 0-4.665 3.795-8.46 8.46-8.46 4.664 0 8.46 3.795 8.46 8.46 0 4.664-3.796 8.46-8.46 8.46zm0-14.318a5.864 5.864 0 0 0-5.857 5.858 5.864 5.864 0 0 0 5.857 5.857 5.864 5.864 0 0 0 5.857-5.857 5.864 5.864 0 0 0-5.857-5.858z" fill="#000"/>
    </g>
</svg>
