<svg width="158" height="144" xmlns="http://www.w3.org/2000/svg" xmlns:xlink="http://www.w3.org/1999/xlink">
    <defs>
        <path d="M66.577 11.423a39 39 0 0 0-55.154 55.154l.707-.707-.707.707a39 39 0 1 0 55.154-55.154zm-50.931 43.86a28.472 28.472 0 0 1 3.223-36.414 28.47 28.47 0 0 1 36.414-3.223L15.646 55.283zm46.708-32.566L22.717 62.354a28.471 28.471 0 0 0 39.637-39.637z" id="a"/>
    </defs>
    <g fill="none" fill-rule="evenodd">
        <path fill="#F0F0F5" fill-rule="nonzero" d="M0 0h158v144H0z"/>
        <path stroke="#000" stroke-width="2" fill="#C4C4C4" fill-rule="nonzero" d="M13 110.154h19.992v26H13z"/>
        <path fill="#0A7960" fill-rule="nonzero" d="M14 111.154h5.997v24H14zM19.997 111.154h5.997v24h-5.997z"/>
        <path fill="#44D7B6" fill-rule="nonzero" d="M25.994 111.154h5.997v24h-5.997z"/>
        <path stroke="#000" stroke-width="2" fill="#C4C4C4" fill-rule="nonzero" d="M40.992 90.154h19.992v46H40.992z"/>
        <path fill="#0A7960" fill-rule="nonzero" d="M41.992 91.154h5.997v44h-5.997zM47.989 91.154h5.997v44h-5.997z"/>
        <path fill="#44D7B6" fill-rule="nonzero" d="M53.986 91.154h5.997v44h-5.997z"/>
        <path stroke="#000" stroke-width="2" fill="#C4C4C4" fill-rule="nonzero" d="M69.015 70.154h19.992v66H69.015z"/>
        <path fill="#0A7960" fill-rule="nonzero" d="M76.012 71.154h5.997v64h-5.997zM69.983 71.154h5.997v64h-5.997z"/>
        <path fill="#44D7B6" fill-rule="nonzero" d="M82.009 71.154h5.997v64h-5.997z"/>
        <path stroke="#000" stroke-width="2" fill="#C4C4C4" fill-rule="nonzero" d="M97.006 50.154h19.992v86H97.006z"/>
        <path fill="#0A7960" fill-rule="nonzero" d="M98.006 51.154h5.997v84h-5.997zM104.004 51.154h5.997v84h-5.997z"/>
        <path fill="#44D7B6" fill-rule="nonzero" d="M110.001 51.154h5.997v84h-5.997z"/>
        <path stroke="#000" stroke-width="2" fill="#C4C4C4" fill-rule="nonzero" d="M124.998 30.154h19.992v106h-19.992z"/>
        <path fill="#0A7960" fill-rule="nonzero" d="M125.998 31.154h5.997v104h-5.997zM131.995 31.154h5.997v104h-5.997z"/>
        <path fill="#44D7B6" fill-rule="nonzero" d="M137.993 31.154h5.997v104h-5.997z"/>
        <path d="M72.886 33.731a39 39 0 1 1-55.154 55.155l27.577-27.577 27.577-27.578z" fill="#F0F0F5" fill-rule="nonzero"/>
        <path d="M72.886 33.731a39 39 0 0 0-55.154 55.155l.707-.707-.707.707a39 39 0 1 0 55.154-55.154zM21.955 77.593a28.472 28.472 0 0 1 3.222-36.415 28.47 28.47 0 0 1 36.415-3.222L21.955 77.592zm46.708-32.566L29.026 84.663a28.471 28.471 0 0 0 39.637-39.637z" fill="#E76D69"/>
        <g transform="translate(6.309 22.309)">
            <mask id="b" fill="#fff">
                <use xlink:href="#a"/>
            </mask>
            <path d="M39 0v2-2zM0 39h2-2zm11.423 27.577-1.414 1.414 1.414 1.414 1.414-1.414-1.414-1.414zm.707-.707 1.414 1.414-2.828-2.829 1.414 1.415zm-.707.707-1.414-1.414-1.415 1.414 1.415 1.414 1.414-1.414zM39 78v2-2zm39-39h-2 2zm-67.47 0h2-2zm5.116 16.283-1.64 1.144 1.365 1.96 1.69-1.69-1.415-1.414zm3.223-36.414-1.415-1.415 1.415 1.415zM39 10.53v-2 2zm16.283 5.116 1.414 1.414 1.69-1.689-1.96-1.366-1.144 1.64zm7.071 7.071 1.64-1.144-1.366-1.96-1.688 1.69 1.414 1.414zM22.717 62.354l-1.414-1.415-1.69 1.69 1.96 1.365 1.144-1.64zM39 67.47v2-2zM39 2a37 37 0 0 1 26.163 10.837l2.828-2.828A40.999 40.999 0 0 0 39.001-2v4zM12.837 12.837A37.001 37.001 0 0 1 39 2v-4A41 41 0 0 0 10.01 10.009l2.828 2.828zM2 39a37 37 0 0 1 10.837-26.163l-2.828-2.828A41 41 0 0 0-2 39h4zm10.837 26.163A37 37 0 0 1 2 39h-4a40.999 40.999 0 0 0 12.009 28.991l2.828-2.828zm-2.121-.708-.707.708 2.828 2.828.707-.707-2.828-2.829zm2.121 3.536.707-.707-2.828-2.828-.707.707 2.828 2.828zM39 76.001a37.004 37.004 0 0 1-26.163-10.838l-2.828 2.828A41 41 0 0 0 39 80.001v-4zm26.163-10.838A37.004 37.004 0 0 1 39 76v4a41 41 0 0 0 28.991-12.009l-2.828-2.828zM76 39a37.004 37.004 0 0 1-10.837 26.163l2.828 2.828a41 41 0 0 0 12.01-28.99h-4zM65.163 12.837A37.004 37.004 0 0 1 76 39h4A41 41 0 0 0 67.991 10.01l-2.828 2.828zM8.53 39a30.474 30.474 0 0 0 5.475 17.427l3.281-2.288A26.472 26.472 0 0 1 12.53 39h-4zm8.924-21.546A30.471 30.471 0 0 0 8.53 39h4a26.47 26.47 0 0 1 7.753-18.717l-2.829-2.829zM39 8.53a30.471 30.471 0 0 0-21.546 8.924l2.829 2.829A26.47 26.47 0 0 1 39 12.53v-4zm17.427 5.475A30.474 30.474 0 0 0 39 8.53v4c5.45 0 10.728 1.681 15.14 4.757l2.287-3.282zM17.06 56.697 56.697 17.06l-2.829-2.828-39.636 39.636 2.828 2.83zm43.88-35.394L21.303 60.939l2.828 2.83L63.768 24.13l-2.828-2.828zM21.573 63.994A30.471 30.471 0 0 0 39 69.47v-4a26.474 26.474 0 0 1-15.14-4.757l-2.287 3.281zM39 69.47a30.47 30.47 0 0 0 21.545-8.925l-2.828-2.828A26.47 26.47 0 0 1 39 65.47v4zm21.545-8.925A30.47 30.47 0 0 0 69.47 39h-4a26.47 26.47 0 0 1-7.753 18.717l2.828 2.828zM69.47 39c0-6.275-1.936-12.35-5.476-17.427l-3.28 2.288A26.474 26.474 0 0 1 65.47 39h4z" fill="#000" fill-rule="nonzero" mask="url(#b)"/>
        </g>
    </g>
</svg>
