<svg xmlns="http://www.w3.org/2000/svg" width="16" height="16" viewBox="0 0 16 16">
    <g fill="none" fill-rule="evenodd">
        <g fill="#E94441" fill-rule="nonzero">
            <g>
                <path d="M7.142.36C7.563-.117 8.31-.12 8.734.345l.278.305c.305.335.793.44 1.211.263l.385-.161c.59-.25 1.265.062 1.442.665l.117.394c.128.43.522.73.977.75l.419.017c.639.026 1.11.597 1.003 1.213l-.07.403c-.077.443.144.882.546 1.092l.368.193c.565.299.736 1.01.368 1.522l-.241.334c-.265.367-.258.856.01 1.216l.247.332c.379.508.218 1.222-.34 1.524l-.366.2c-.398.216-.612.659-.528 1.098l.077.404c.117.616-.345 1.193-.984 1.23l-.418.022c-.455.023-.843.331-.964.764l-.11.397c-.17.603-.84.927-1.432.688l-.388-.157c-.422-.17-.907-.06-1.208.278l-.275.309c-.418.475-1.164.478-1.592.013l-.278-.305c-.305-.335-.793-.44-1.211-.263l-.385.161c-.59.25-1.265-.062-1.442-.665l-.117-.394c-.128-.43-.522-.73-.977-.75l-.419-.017c-.639-.026-1.11-.597-1.003-1.213l.07-.403c.077-.443-.144-.882-.546-1.092L.59 10.52C.025 10.22-.146 9.51.222 8.998l.241-.334c.265-.367.258-.856-.01-1.216l-.247-.332c-.379-.504-.218-1.22.34-1.524l.366-.2c.398-.216.612-.659.528-1.098l-.077-.404c-.117-.616.345-1.193.984-1.23l.418-.022c.455-.023.843-.331.964-.764l.11-.397C4.01.874 4.68.55 5.271.79l.388.157c.422.17.907.06 1.208-.278zm3.025 7.383c-.91 0-1.647.72-1.647 1.613 0 .891.736 1.613 1.647 1.613.91 0 1.646-.722 1.646-1.613 0-.892-.736-1.613-1.646-1.613zm.244-2.594c-.17-.137-.425-.114-.566.053L5.525 10.3c-.14.167-.116.416.054.554l.068.044c.165.086.375.05.498-.097l4.32-5.098c.14-.167.116-.416-.054-.554zm-.19 3.538c.379 0 .686.3.686.669 0 .369-.307.668-.686.668-.38 0-.687-.299-.687-.668 0-.37.308-.67.687-.67zM5.827 5.028c-.91 0-1.646.721-1.646 1.613 0 .889.736 1.613 1.646 1.613.91 0 1.646-.721 1.646-1.613s-.736-1.613-1.646-1.613zm.034.944c.38 0 .686.3.686.67 0 .368-.307.668-.686.668-.379 0-.686-.3-.686-.669 0-.37.307-.669.686-.669z" transform="translate(-16.000000, -58.000000) translate(16.000000, 58.000000)"/>
            </g>
        </g>
    </g>
</svg>
