<svg xmlns="http://www.w3.org/2000/svg" width="145" height="132" viewBox="0 0 145 132">
    <g fill="none" fill-rule="evenodd">
        <g>
            <g transform="translate(-134.000000, -382.000000) translate(135.000000, 382.000000)">
                <path fill="#E5E5EB" fill-rule="nonzero" d="M71.5 125.845c56.5-17.685 71.053-29.488 71.776-68.868C144 17.597 103.28-6.199 55 2.712 6.72 11.622-3.481 32.036 1 76c4.481 43.964 14 67.53 70.5 49.845z"/>
                <g fill-rule="nonzero" stroke="#E5E5EB" stroke-width="3">
                    <path fill="#6D6D6D" d="M90.178 43.116L51.664 30.35 13.151 43.116 0 64.005l12.106 4.013V90.22l39.558 13.112L91.222 90.22V68.018l12.106-4.013-13.15-20.889h0zm-11.605 2.532l-26.909 8.92-26.909-8.92 26.91-8.92 26.908 8.92zM9.242 60.689l7.19-11.421 30.611 10.147-7.19 11.421L9.242 60.69v-.001zm8.92 9.336l24.288 8.051 6.187-9.827V95.95L18.16 85.848V70.025h.002zm36.53 25.925V68.248l6.186 9.828 24.29-8.051v15.823L54.691 95.95h.001zm8.783-25.114l-7.19-11.421 30.611-10.147 7.19 11.422-30.61 10.146h-.001z" transform="translate(20.000000, 6.000000)"/>
                    <path fill="#E94441" d="M48.637 0L54.692 0 54.692 20.218 48.637 20.218z" transform="translate(20.000000, 6.000000)"/>
                    <path fill="#E94441" d="M24.812 6.384L30.867 6.384 30.867 26.601 24.812 26.601z" transform="translate(20.000000, 6.000000) translate(27.839817, 16.492683) rotate(-30.001000) translate(-27.839817, -16.492683)"/>
                    <path fill="#E94441" d="M65.38 13.467L85.597 13.467 85.597 19.522 65.38 19.522z" transform="translate(20.000000, 6.000000) translate(75.488183, 16.494683) rotate(-59.999000) translate(-75.488183, -16.494683)"/>
                </g>
                <path stroke="#6D6D6D" stroke-linejoin="round" stroke-width=".8" d="M55 1L59 1 59 5 55 5z" opacity=".6" transform="translate(57.000000, 3.000000) rotate(9.000000) translate(-57.000000, -3.000000)"/>
                <circle cx="24.5" cy="40.5" r="2.5" stroke="#8F1538" stroke-linejoin="round" opacity=".6"/>
                <path stroke="#8F1538" stroke-linejoin="round" d="M112 100L117 100 117 105 112 105z" opacity=".6" transform="translate(114.500000, 102.500000) rotate(45.000000) translate(-114.500000, -102.500000)"/>
                <path stroke="#70BF47" stroke-linejoin="round" stroke-width=".8" d="M115 23L119 23 119 27 115 27z" opacity=".6"/>
                <circle cx="33" cy="81" r="2" stroke="#5B45C8" stroke-linejoin="round" stroke-width=".8" opacity=".6"/>
                <circle cx="2.5" cy="65.5" r="2.5" stroke="#70BF47" stroke-linejoin="round" opacity=".6"/>
                <path stroke="#904800" stroke-linejoin="round" d="M44.5 118L47 123 42 123z" opacity=".6" transform="translate(44.500000, 120.500000) rotate(45.000000) translate(-44.500000, -120.500000)"/>
                <path stroke="#6D6D6D" stroke-linejoin="round" d="M137.5 55L140 60 135 60z" opacity=".6"/>
            </g>
        </g>
    </g>
</svg>
