<svg xmlns="http://www.w3.org/2000/svg" width="12" height="12" viewBox="0 0 12 12">
    <g fill="none" fill-rule="evenodd" opacity=".87">
        <g fill-rule="nonzero">
            <g>
                <g>
                    <path fill="#E94441" d="M6 0C2.692 0 0 2.692 0 6s2.692 6 6 6 6-2.692 6-6-2.692-6-6-6z" transform="translate(-42 -465) translate(32 455) translate(10 10)"/>
                    <path fill="#FFF" d="M5.933 5.232c.204 0 .37.166.37.37V8.74c0 .204-.166.37-.37.37s-.37-.166-.37-.37V5.602c0-.204.166-.37.37-.37zm.025-2.242c.265 0 .48.215.48.48s-.215.48-.48.48-.48-.215-.48-.48.215-.48.48-.48z" transform="translate(-42 -465) translate(32 455) translate(10 10)"/>
                </g>
            </g>
        </g>
    </g>
</svg>
